<?xml version="1.0" encoding="UTF-8" standalone="no"?>
<!DOCTYPE svg PUBLIC "-//W3C//DTD SVG 20010904//EN" "http://www.w3.org/TR/2001/REC-SVG-20010904/DTD/svg10.dtd">
<!-- Created with Inkscape (http://www.inkscape.org/) -->
<svg version="1.0" x="0.0000000" y="0.0000000" width="900.00000" height="895.34800" viewBox="0 0 225 223.83691" id="svg1" xml:space="preserve" xmlns="http://www.w3.org/2000/svg" xmlns:xml="http://www.w3.org/XML/1998/namespace" xmlns:xlink="http://www.w3.org/1999/xlink" xmlns:sodipodi="http://sodipodi.sourceforge.net/DTD/sodipodi-0.dtd" xmlns:inkscape="http://www.inkscape.org/namespaces/inkscape" sodipodi:version="0.32" inkscape:version="0.39" xmlns:rdf="http://www.w3.org/1999/02/22-rdf-syntax-ns#" xmlns:cc="http://web.resource.org/cc/" xmlns:dc="http://purl.org/dc/elements/1.1/" sodipodi:docname="klogo-small-crystal.svg" sodipodi:docbase="/home/tackat/Documents/vingoni"><sodipodi:namedview id="base" pagecolor="#ffffff" bordercolor="#666666" borderopacity="1.0" inkscape:pageopacity="0.0" inkscape:pageshadow="2" inkscape:zoom="1.7366334" inkscape:cx="124.37143" inkscape:cy="90.429965" inkscape:window-width="640" inkscape:window-height="526" inkscape:window-x="376" inkscape:window-y="0"/>
<defs id="defs300">


				<linearGradient x1="217.86621" y1="217.28516" x2="7.1352701" y2="6.5542202" id="path1065_2_" gradientUnits="userSpaceOnUse">
					<stop style="stop-color:#3c5c82;stop-opacity:1.0000000;" offset="0.0000000" id="stop85"/>



					<stop style="stop-color:#001b7b;stop-opacity:1.0000000;" offset="1.0000000" id="stop87"/>



					<midPointStop offset="0" style="stop-color:#0053BD" id="midPointStop89"/>



					<midPointStop offset="0.5" style="stop-color:#0053BD" id="midPointStop91"/>



					<midPointStop offset="1" style="stop-color:#00008D" id="midPointStop93"/>



				</linearGradient>




				<linearGradient x1="214.27441" y1="213.71484" x2="10.727790" y2="10.168220" id="XMLID_1_" gradientUnits="userSpaceOnUse">
					<stop style="stop-color:#0068c6;stop-opacity:1.0000000;" offset="0.0000000" id="stop100"/>



					<stop style="stop-color:#3c5cb2;stop-opacity:1.0000000;" offset="1.0000000" id="stop102"/>



					<midPointStop offset="0" style="stop-color:#0066CC" id="midPointStop104"/>



					<midPointStop offset="0.5" style="stop-color:#0066CC" id="midPointStop106"/>



					<midPointStop offset="1" style="stop-color:#0053BD" id="midPointStop108"/>



				</linearGradient>





				<linearGradient x1="112.50049" y1="211.02246" x2="112.50048" y2="12.813960" id="path1067_2_" gradientUnits="userSpaceOnUse">
					<stop style="stop-color:#418ade;stop-opacity:1.0000000;" offset="0.0000000" id="stop117"/>

















					<stop style="stop-color:#a4cdec;stop-opacity:1.0000000;" offset="0.50000000" id="stop133"/>

















					<stop style="stop-color:#003399;stop-opacity:1.0000000;" offset="1.0000000" id="stop149"/>



					<midPointStop offset="0" style="stop-color:#0099FF" id="midPointStop151"/>



					<midPointStop offset="0.25" style="stop-color:#0099FF" id="midPointStop153"/>



					<midPointStop offset="0.5" style="stop-color:#B0D9FF" id="midPointStop155"/>



					<midPointStop offset="0.75" style="stop-color:#B0D9FF" id="midPointStop157"/>



					<midPointStop offset="1" style="stop-color:#003399" id="midPointStop159"/>



				</linearGradient>





					<radialGradient cx="-1.3662100" cy="223.93457" r="299.15564" fx="-1.3662100" fy="223.93457" id="XMLID_2_" gradientUnits="userSpaceOnUse">
					<stop style="stop-color:#ffffff;stop-opacity:1.0000000;" offset="0.0000000" id="stop166"/>



					<stop style="stop-color:#418ade;stop-opacity:1.0000000;" offset="0.44999999" id="stop168"/>



					<stop style="stop-color:#3c5cb2;stop-opacity:1.0000000;" offset="0.75000000" id="stop170"/>



					<stop style="stop-color:#0068c6;stop-opacity:1.0000000;" offset="1.0000000" id="stop172"/>



					<midPointStop offset="0" style="stop-color:#FFFFFF" id="midPointStop174"/>



					<midPointStop offset="0.5" style="stop-color:#FFFFFF" id="midPointStop176"/>



					<midPointStop offset="0.45" style="stop-color:#0083D7" id="midPointStop178"/>



					<midPointStop offset="0.5" style="stop-color:#0083D7" id="midPointStop180"/>



					<midPointStop offset="0.75" style="stop-color:#0053BD" id="midPointStop182"/>



					<midPointStop offset="0.5" style="stop-color:#0053BD" id="midPointStop184"/>



					<midPointStop offset="1" style="stop-color:#0066CC" id="midPointStop186"/>



				</radialGradient>




				<linearGradient x1="112.49854" y1="6.1372099" x2="112.49853" y2="129.34680" id="path1082_2_" gradientUnits="userSpaceOnUse">
					<stop style="stop-color:#ffffff;stop-opacity:1.0000000;" offset="0.0000000" id="stop193"/>



					<stop style="stop-color:#0093dd;stop-opacity:0.0000000;" offset="1.0000000" id="stop195"/>



					<midPointStop offset="0" style="stop-color:#FFFFFF" id="midPointStop197"/>



					<midPointStop offset="0.5" style="stop-color:#FFFFFF" id="midPointStop199"/>



					<midPointStop offset="1" style="stop-color:#000000" id="midPointStop201"/>



				</linearGradient>






					<linearGradient x1="87.310547" y1="141.65430" x2="193.38390" y2="35.580940" id="XMLID_3_" gradientUnits="userSpaceOnUse">
						<stop style="stop-color:#001b7b;stop-opacity:1.0000000;" offset="0.0056200000" id="stop210"/>















						<stop style="stop-color:#0093dd;stop-opacity:1.0000000;" offset="1.0000000" id="stop224"/>



						<midPointStop offset="0.00562" style="stop-color:#003399" id="midPointStop226"/>



						<midPointStop offset="0.25" style="stop-color:#003399" id="midPointStop228"/>



						<midPointStop offset="1" style="stop-color:#57ADFF" id="midPointStop230"/>



					</linearGradient>







					<linearGradient x1="94.524902" y1="133.65625" x2="184.72461" y2="43.456532" id="XMLID_4_" gradientUnits="userSpaceOnUse">
						<stop style="stop-color:#ffffff;stop-opacity:1.0000000;" offset="0.0000000" id="stop239"/>



						<stop style="stop-color:#fcfeff;stop-opacity:1.0000000;" offset="0.31658000" id="stop241"/>



						<stop style="stop-color:#f2faff;stop-opacity:1.0000000;" offset="0.57076001" id="stop243"/>



						<stop style="stop-color:#e1f3ff;stop-opacity:1.0000000;" offset="0.80255997" id="stop245"/>



						<stop style="stop-color:#ccebff;stop-opacity:1.0000000;" offset="1.0000000" id="stop247"/>



						<midPointStop offset="0" style="stop-color:#FFFFFF" id="midPointStop249"/>



						<midPointStop offset="0.75" style="stop-color:#FFFFFF" id="midPointStop251"/>



						<midPointStop offset="1" style="stop-color:#CCEBFF" id="midPointStop253"/>



					</linearGradient>





					<linearGradient x1="126.85840" y1="102.09082" x2="51.483250" y2="177.46597" id="XMLID_5_" gradientUnits="userSpaceOnUse">
						<stop style="stop-color:#63b5e8;stop-opacity:1.0000000;" offset="0.0000000" id="stop260"/>



						<stop style="stop-color:#001b7b;stop-opacity:1.0000000;" offset="1.0000000" id="stop262"/>



						<midPointStop offset="0" style="stop-color:#57ADFF" id="midPointStop264"/>



						<midPointStop offset="0.5" style="stop-color:#57ADFF" id="midPointStop266"/>



						<midPointStop offset="1" style="stop-color:#003399" id="midPointStop268"/>



					</linearGradient>







					<linearGradient x1="116.01855" y1="112.93164" x2="56.763809" y2="172.18639" id="XMLID_6_" gradientUnits="userSpaceOnUse">
						<stop style="stop-color:#ffffff;stop-opacity:1.0000000;" offset="0.44999999" id="stop277"/>









						<stop style="stop-color:#a4cdec;stop-opacity:1.0000000;" offset="1.0000000" id="stop285"/>



						<midPointStop offset="0.45" style="stop-color:#FFFFFF" id="midPointStop287"/>



						<midPointStop offset="0.75" style="stop-color:#FFFFFF" id="midPointStop289"/>



						<midPointStop offset="1" style="stop-color:#D4EEFF" id="midPointStop291"/>



					</linearGradient>





				<linearGradient x1="92.049637" y1="109.93223" x2="-35.710068" y2="216.77003" id="linearGradient3301" xlink:href="#XMLID_6_" gradientUnits="userSpaceOnUse"/>

<linearGradient x1="103.71875" y1="107.75011" x2="223.05583" y2="-5.3456044" id="linearGradient3302" xlink:href="#XMLID_6_" gradientUnits="userSpaceOnUse"/>

</defs>






		<path d="M 23.298830,0.0000000 L 201.70215,0.0000000 C 214.51660,0.0000000 225.00000,10.483890 225.00000,23.297360 L 225.00000,200.53906 C 225.00000,213.35351 214.51660,223.83691 201.70215,223.83691 L 23.298830,223.83691 C 10.483890,223.83691 0.0000000,213.35352 0.0000000,200.53906 L 0.0000000,23.297360 C 0.0000000,10.483890 10.483890,0.0000000 23.298830,0.0000000 z " style="fill:url(#path1065_2_)" id="path1065_1_"/>


<path d="M 22.113770,5.6054700 L 202.88672,5.6054700 C 211.98828,5.6054700 219.41406,13.033690 219.41406,22.133300 L 219.41406,201.70117 C 219.41406,210.80176 211.98828,218.32129 202.88672,218.32129 L 22.113770,218.32129 C 13.014650,218.32129 5.5859400,210.80176 5.5859400,201.70117 L 5.5859400,22.133300 C 5.5849600,13.033690 13.014650,5.6054700 22.113770,5.6054700 z " style="fill:url(#XMLID_1_)" id="path111"/>


<path d="M 25.269530,9.3193400 L 199.73047,9.3193400 C 208.51270,9.3193400 215.68164,16.487800 215.68164,25.270020 L 215.68164,198.56738 C 215.68164,207.34961 208.51269,214.60840 199.73047,214.60840 L 25.269530,214.60840 C 16.487790,214.60840 9.3198200,207.34961 9.3198200,198.56738 L 9.3198200,25.270020 C 9.3183600,16.487790 16.487790,9.3193400 25.269530,9.3193400 z " style="fill:#ffffff" id="path113"/>


<path d="M 25.627440,12.813480 L 199.37305,12.813480 C 206.36035,12.813480 212.09571,18.548830 212.09571,25.627440 L 212.09571,198.29980 C 212.09571,205.28808 206.36133,211.02246 199.37305,211.02246 L 25.627440,211.02246 C 18.638670,211.02246 12.905270,205.28808 12.905270,198.29980 L 12.905270,25.627440 C 12.905270,18.548830 18.638670,12.813480 25.627440,12.813480 z " style="fill:url(#path1067_2_)" id="path1067_1_"/>


<path d="M 25.627440,15.303220 C 19.984370,15.303220 15.394040,19.934570 15.394040,25.627440 L 15.394040,198.29980 C 15.394040,203.94140 19.984370,208.53418 25.627440,208.53418 L 199.37305,208.53418 C 205.01563,208.53418 209.60743,203.94141 209.60743,198.29980 L 209.60743,25.627440 C 209.60743,19.934570 205.01563,15.303220 199.37305,15.303220 L 25.627440,15.303220 z " style="fill:url(#XMLID_2_)" id="path189"/>


<path d="M 25.627440,18.105470 C 21.530270,18.105470 18.196780,21.479010 18.196780,25.627440 C 18.196780,25.627440 18.196780,130.19433 18.196780,138.14551 C 27.309080,129.61133 57.160650,106.60498 114.41309,106.60498 C 177.06153,106.60498 203.46875,78.822270 206.80079,74.996090 C 206.80079,73.740230 206.80079,25.628410 206.80079,25.628410 C 206.80079,21.480460 203.46876,18.106930 199.37110,18.106930 L 25.627440,18.106930 L 25.627440,18.105470 z " style="fill:url(#path1082_2_)" id="path1082_1_"/>


<path d="M 124.10938,26.553220 L 95.522470,29.290040 C 94.883800,29.352540 94.396490,29.888670 94.396490,30.530270 L 94.396490,148.22558 C 94.396490,148.58691 94.554690,148.93261 94.829600,149.16796 C 95.104500,149.40526 95.468270,149.50976 95.826180,149.45605 L 124.11134,145.19726 C 124.71876,145.10546 125.17189,144.58203 125.17189,143.96581 C 125.17189,143.96581 125.17189,104.63134 125.17189,97.815420 C 129.18947,103.69774 160.91212,150.14550 160.91212,150.14550 C 161.22071,150.59863 161.79200,150.79491 162.31544,150.62890 L 192.11817,141.20117 C 192.49903,141.08008 192.79883,140.78320 192.92383,140.40332 C 192.96582,140.27539 192.98731,140.14355 192.98731,140.01465 C 192.98731,139.75391 192.90528,139.49805 192.74805,139.28223 C 192.74805,139.28223 155.44141,87.982910 154.37110,86.512700 C 155.48731,85.077150 193.03126,36.768070 193.03126,36.768070 C 193.20216,36.546390 193.29103,36.277350 193.29103,36.003910 C 193.29103,35.863770 193.26857,35.723150 193.21974,35.586920 C 193.07716,35.186040 192.74025,34.886720 192.32521,34.791020 L 161.91603,27.797860 C 161.43556,27.687510 160.93458,27.871100 160.63966,28.265630 C 160.63966,28.265630 129.19142,70.363290 125.19044,75.719240 C 125.22950,69.219730 125.47267,27.795410 125.47267,27.792970 C 125.47267,27.442870 125.32619,27.109860 125.06935,26.874510 C 124.80859,26.637210 124.46191,26.520510 124.10938,26.553220 z " style="fill:url(#XMLID_3_)" id="path233"/>

<polygon points="95.641600,148.22559 95.641600,30.530270 124.22754,27.792970 123.92480,79.494140 161.63672,29.010740 192.04785,36.003910 152.81543,86.487300 191.74219,140.01465 161.94043,149.44238 123.92676,93.786620 123.92676,143.96582 95.641600,148.22559 " style="fill:#ffffff" id="path5692_1_"/>

<path d="M 101.86377,36.184570 C 101.86377,45.772950 101.86377,128.91016 101.86377,140.99512 C 107.84668,140.09473 112.88086,139.33692 117.70410,138.61035 C 117.70410,130.90918 117.70410,104.72461 117.70410,98.219240 C 117.70215,98.222170 117.59180,98.369630 117.59180,98.369630 C 117.59180,98.369630 117.70410,79.268070 117.70410,79.266600 C 117.70410,77.003900 117.70410,73.643060 117.70410,73.643060 L 117.73633,73.691890 C 117.78223,65.954100 117.91309,43.660150 117.96680,34.644040 C 112.09473,35.205080 106.95605,35.697270 101.86377,36.184570 z M 128.90918,83.217770 C 128.90918,83.217770 127.29492,85.378900 126.47168,86.481440 C 127.38574,87.819330 159.94727,135.49121 164.47070,142.11621 C 168.79492,140.74707 174.76465,138.85840 181.62793,136.68652 C 173.94531,126.12304 145.03027,86.363280 145.03027,86.363280 C 145.03027,86.363280 172.55761,50.941400 181.15136,39.883300 C 173.86620,38.208500 168.02929,36.865230 164.19628,35.983400 C 159.94434,41.672360 128.90918,83.217770 128.90918,83.217770 z " style="fill:url(#linearGradient3302);fill-opacity:1.0000000" id="path256"/>

<path d="M 57.675780,56.014650 C 57.674800,56.015630 46.459470,67.230960 46.459470,67.230960 C 45.938470,67.752440 45.669430,68.441900 45.669430,69.138190 C 45.669430,69.618170 45.796870,70.101570 46.060540,70.536630 C 46.060540,70.536630 58.155270,90.452650 58.835440,91.575690 C 56.745110,95.200200 55.058100,99.045420 53.805170,103.03907 C 52.532710,103.30274 30.364740,107.91407 30.364740,107.91407 C 29.120110,108.17139 28.218260,109.28223 28.218260,110.55323 L 28.218260,126.41700 C 28.218260,127.66309 29.064450,128.74122 30.274410,129.03419 C 30.274410,129.03419 51.722160,134.27833 52.998040,134.58888 C 54.208980,139.31251 55.984370,143.80861 58.284660,147.99220 C 57.561520,149.09474 45.121570,168.06837 45.121570,168.06837 C 44.827620,168.51759 44.684070,169.02931 44.684070,169.54103 C 44.684070,170.24025 44.954090,170.93556 45.474110,171.45412 L 56.687980,182.67092 C 57.571770,183.55276 58.932610,183.71584 59.997550,183.06838 C 59.997550,183.06838 79.544910,171.20022 80.646480,170.53225 C 84.542480,172.71291 88.662590,174.42776 92.925290,175.64455 C 93.195800,176.94826 97.733880,198.76564 97.733880,198.76564 C 97.990230,200.00880 99.100090,200.91408 100.37402,200.91408 L 116.23828,200.91408 C 117.48340,200.91408 118.56055,200.06740 118.85644,198.85646 C 118.85644,198.85646 124.22363,176.88869 124.52636,175.64650 C 128.94335,174.39064 133.19531,172.60158 137.20019,170.31837 C 138.32617,171.05860 157.52148,183.64552 157.52148,183.64552 C 158.58300,184.34083 160.00586,184.19435 160.90429,183.30079 L 172.12499,172.08009 C 173.00683,171.19923 173.17089,169.83888 172.52245,168.77443 L 164.88378,156.18947 C 164.58495,155.69826 163.99218,155.47463 163.44433,155.64943 C 163.44433,155.64943 161.68554,156.20509 161.25097,156.34377 C 159.91796,154.39260 150.25390,140.24318 150.25390,140.24318 C 150.00585,139.87990 149.58593,139.67482 149.14452,139.70314 C 148.70800,139.73048 148.31639,139.98830 148.11620,140.37892 C 140.51171,155.25880 125.42186,164.50197 108.73436,164.50197 C 96.924790,164.50197 85.822250,159.90334 77.471660,151.55177 C 69.121070,143.20118 64.521950,132.09767 64.521950,120.28907 C 64.521950,102.92335 74.765110,87.093760 90.616680,79.959970 C 91.063950,79.758800 91.350570,79.314460 91.350570,78.824230 L 91.350570,67.098630 C 91.350570,66.694820 91.155260,66.316890 90.826160,66.083980 C 90.497550,65.850580 90.076160,65.790520 89.695790,65.923820 C 86.944330,66.887200 84.339830,68.042960 81.896960,69.327630 C 80.801750,68.610340 61.062000,55.664540 61.062000,55.664540 C 59.997560,54.966800 58.573240,55.115230 57.675780,56.014650 z " style="fill:url(#XMLID_5_)" id="path271"/>

<path d="M 163.81934,156.83398 L 161.34961,157.61816 C 160.98828,157.72949 160.59961,157.59570 160.38477,157.28125 C 160.38477,157.28125 155.51368,150.15234 149.22461,140.94531 C 141.70313,155.66308 126.40137,165.74511 108.73438,165.74511 C 83.629890,165.74511 63.277350,145.39355 63.277350,120.28906 C 63.277350,101.82275 74.293460,85.940430 90.106450,78.824220 L 90.106450,67.098630 C 87.228520,68.105950 84.448250,69.318840 81.805670,70.758300 C 81.800790,70.755370 81.796880,70.750980 81.792000,70.748050 L 60.380370,56.705080 C 59.804200,56.328130 59.043460,56.406250 58.557130,56.893560 L 47.339360,68.110840 C 46.867680,68.583980 46.779300,69.318850 47.125490,69.891600 L 60.259770,91.522460 C 57.929690,95.439450 56.064460,99.662600 54.732430,104.11719 L 30.617200,109.13282 C 29.946300,109.27149 29.462410,109.86573 29.462410,110.55323 L 29.462410,126.41700 C 29.462410,127.08790 29.919440,127.66895 30.568860,127.82716 L 53.970230,133.54689 C 55.220230,138.70412 57.151870,143.59669 59.708020,148.09181 L 46.163090,168.75000 C 45.785160,169.32617 45.865240,170.08691 46.352540,170.57324 L 57.567870,181.79101 C 58.041010,182.26269 58.778320,182.35253 59.349610,182.00488 L 80.582030,169.11523 C 84.748050,171.52050 89.247560,173.41503 93.999020,174.69824 L 98.953120,198.51172 C 99.091790,199.18457 99.687010,199.66895 100.37402,199.66895 L 116.23828,199.66895 C 116.90430,199.66895 117.48828,199.21192 117.64648,198.56055 L 123.47949,174.69239 C 128.37988,173.37110 133.01269,171.40235 137.28613,168.88673 L 158.20410,182.60548 C 158.78125,182.98146 159.53906,182.90431 160.02832,182.41798 L 171.24512,171.20021 C 171.71973,170.72658 171.80664,169.99318 171.45899,169.42189 L 163.81934,156.83398 z " style="fill:#ffffff" id="path273"/>

<path d="M 54.387210,69.863280 C 57.204590,74.502930 66.233400,89.371090 66.803710,90.309570 C 70.449220,85.208500 74.965820,80.730960 80.293460,77.206540 C 79.384280,76.609860 64.886720,67.102540 60.213870,64.037110 C 58.061040,66.189450 56.490230,67.761230 54.387210,69.863280 z M 55.999020,110.20850 C 55.999020,110.20850 41.079100,113.31348 35.685060,114.43360 C 35.685060,117.47950 35.685060,119.70020 35.685060,122.67090 C 40.882330,123.94043 56.625980,127.78809 57.692870,128.04981 C 57.310060,125.49805 57.054690,122.91602 57.054690,120.28907 C 57.054690,116.68751 57.556640,113.17677 58.281250,109.73438 C 57.215330,109.95557 55.999020,110.20850 55.999020,110.20850 z M 64.912110,151.50293 C 64.912110,151.50293 56.519040,164.30371 53.495120,168.91699 C 55.648930,171.07129 57.218750,172.64160 59.320800,174.74316 C 63.942380,171.93750 78.310550,163.21386 79.208500,162.66796 C 76.733890,160.93749 74.372560,159.01171 72.192390,156.83105 C 69.938970,154.57910 67.949230,152.13964 66.176280,149.57421 C 65.573730,150.49512 64.912110,151.50293 64.912110,151.50293 z M 138.63574,162.33105 C 139.58789,162.95507 153.73926,172.23632 158.37207,175.27343 C 160.52148,173.12499 162.09375,171.55175 164.19629,169.44921 C 162.90527,167.32128 162.22559,166.19823 160.79590,163.84374 C 158.59570,163.75487 156.53418,162.67870 155.24707,160.79101 C 155.24707,160.79101 152.26855,156.43359 149.31543,152.11035 C 146.23340,156.05566 142.64063,159.47656 138.63574,162.33105 z M 108.73438,171.96777 C 105.64014,171.96777 102.59815,171.65820 99.613290,171.12988 C 99.838880,172.21972 103.13868,188.07910 104.25587,193.44629 C 107.29884,193.44629 109.51857,193.44629 112.49073,193.44629 C 113.76661,188.21973 117.71192,172.08106 117.96485,171.04785 C 114.94531,171.58984 111.87793,171.96777 108.73438,171.96777 z " style="fill:url(#linearGradient3301);fill-opacity:1.0000000" id="path294"/>



	<metadata id="metadata1101">
  <rdf:RDF id="RDF1102">
    <cc:Work rdf:about="" id="Work1103">
      <dc:format id="format1104">image/svg+xml</dc:format>
      <dc:type id="type1106" rdf:resource="http://purl.org/dc/dcmitype/StillImage"/>
    </cc:Work>
  </rdf:RDF>
</metadata>
</svg>